<?xml version="1.0"?>
<svg xmlns="http://www.w3.org/2000/svg" version="1" viewBox="0 0 24 24" enable-background="new 0 0 24 24">
    <path d="M 10 2 L 10 10 L 9 10 L 9 3 L 7 3 L 7 14 L 7 14.59375 C 7 14.59375 4.1875 12.6875 3.6875 12.6875 C 2.3875 12.6875 2.09375 14.09375 2.09375 14.09375 L 7.09375 20.6875 C 7.59375 21.4875 8.59375 22 9.59375 22 L 14 22 C 16.2 22 18 20.2 18 18 L 18 16 L 18 12.5 L 18 5 L 16 5 L 16 10.875 L 15 10.71875 L 15 3 L 13 3 L 13 10.40625 L 12 10.25 L 12 2 L 10 2 z"/>
</svg>
